<?xml version="1.0" encoding="utf-8"?>
<!-- Generator: Adobe Illustrator 25.4.1, SVG Export Plug-In . SVG Version: 6.00 Build 0)  -->
<svg version="1.1" xmlns="http://www.w3.org/2000/svg" xmlns:xlink="http://www.w3.org/1999/xlink" x="0px" y="0px"
	 viewBox="0 0 420 60" style="enable-background:new 0 0 420 60;" xml:space="preserve">
<style type="text/css">
	.st0{display:none;}
	.st1{display:inline;}
	.st2{display:inline;fill:none;}
</style>
<g id="ACTIVEWEAR" class="st0">
	<g class="st1">
		<path d="M55.76,45.4h3.78l11.61-30.79h1.03l11.7,30.79h3.83V46H74.46v-0.6h4.77l-4.52-11.95h-9.98L60.23,45.4H65V46h-9.25V45.4z
			 M69.73,20.33L65,32.85h9.46L69.73,20.33z"/>
		<path d="M115.23,46h-0.65c-0.39-0.43-0.82-0.9-1.89-0.9c-1.68,0-4,1.55-7.96,1.55c-3.61,0-7.1-1.25-10.11-4.21
			c-2.79-2.79-4.94-6.62-4.94-11.65c0-8.6,6.58-16.17,15.35-16.17c3.57,0,5.33,1.68,7.05,1.68c1.12,0,1.5-0.43,1.89-0.9h0.65v8.6
			h-0.47c-1.03-4.39-2.92-8.77-9.5-8.77c-9.16,0-10.02,9.12-10.02,15.57c0,12.08,4.09,15.26,10.02,15.26c7.65,0,8.94-4.82,10.1-9.2
			h0.47V46z"/>
		<path d="M125.21,45.4h4.77V15.99h-2.49c-2.28,0-5.98,0.22-7.96,7.27h-0.47v-7.87h26.14v7.87h-0.47c-1.98-7.05-5.68-7.27-7.96-7.27
			h-2.49V45.4h4.77V46h-13.85V45.4z"/>
		<path d="M148.26,45.4h4.77V15.99h-4.77v-0.6h13.85v0.6h-4.77V45.4h4.77V46h-13.85V45.4z"/>
		<path d="M163.01,15.39h13.29v0.6h-4.77l9.55,24.94l9.42-24.94h-4.69v-0.6h9.29v0.6h-3.87l-11.57,30.66h-1.07l-11.7-30.66h-3.87
			V15.39z"/>
		<path d="M195.86,45.4h4.77V15.99h-4.77v-0.6h24.6v7.44h-0.47c-1.46-4.47-3.18-6.84-7.91-6.84h-7.14v13.29h2.79
			c3.83,0,5.03-1.16,6.28-6.32h0.47v13.37H214c-0.77-3.31-1.46-6.45-5.59-6.45h-3.48V45.4h8.13c6.28,0,8.21-6.19,8.56-8.81h0.47V46
			h-26.23V45.4z"/>
		<path d="M224.41,15.39h12.94v0.6h-4.47l8.86,24.94h0.09l5.72-15.87l-3.27-9.07h-3.61v-0.6h12.9v0.6h-4.69l8.86,24.94h0.09
			l9.03-24.94h-4.6v-0.6h9.2v0.6h-3.87l-11.14,30.66h-1.08l-7.4-20.64h-0.09l-7.48,20.64h-1.16l-10.96-30.66h-3.87V15.39z"/>
		<path d="M272.31,45.4h4.77V15.99h-4.77v-0.6h24.6v7.44h-0.47c-1.46-4.47-3.18-6.84-7.91-6.84h-7.14v13.29h2.79
			c3.83,0,5.03-1.16,6.28-6.32h0.47v13.37h-0.47c-0.77-3.31-1.46-6.45-5.59-6.45h-3.48V45.4h8.13c6.28,0,8.21-6.19,8.56-8.81h0.47
			V46h-26.23V45.4z"/>
		<path d="M301.25,45.4h3.78l11.61-30.79h1.03l11.7,30.79h3.83V46h-13.24v-0.6h4.77l-4.51-11.95h-9.98l-4.51,11.95h4.77V46h-9.25
			V45.4z M315.22,20.33l-4.73,12.51h9.46L315.22,20.33z"/>
		<path d="M334.45,45.4h4.77V15.99h-4.77v-0.6h8.17c0.69,0,1.38-0.04,2.06-0.09c0.69,0,1.38-0.04,2.06-0.04
			c3.35,0,5.85,0.13,8.08,1.89c1.98,1.55,2.75,3.65,2.75,5.38c0,1.68-0.9,5.98-7.57,6.84v0.09c1.85,0.26,6.88,1.08,8,4.99
			c0.65,2.24,0.47,6.28,0.9,8.26c0.34,1.51,0.95,2.92,2.62,2.92c0.73,0,1.59-0.3,2.24-0.9l0.39,0.47c-0.6,0.47-1.38,1.12-3.78,1.12
			c-4.6,0-5.8-2.28-6.15-6.62l-0.3-3.91c-0.43-5.76-4.13-5.89-6.11-5.89h-4.3V45.4h4.77V46h-13.85V45.4z M343.52,29.28h3.96
			c3.18,0,5.38-1.38,5.38-6.67c0-6.02-3.4-6.75-6.41-6.75c-1.03,0-2.19,0.04-2.92,0.13V29.28z"/>
	</g>
</g>
<g id="SWIMWEAR" class="st0">
	<g class="st1">
		<path d="M79.07,36.76h0.47c1.98,9.33,7.27,9.29,10.45,9.29c6.06,0,7.61-4.17,7.61-6.97c0-4-3.35-5.63-5.76-6.36l-4.94-1.51
			c-4.64-1.42-7.05-3.65-7.05-7.57c0-5.2,3.87-9.03,9.42-9.03c4,0,5.12,1.68,6.75,1.68c0.73,0,0.86-0.09,1.29-0.9h0.6v7.78h-0.52
			c-0.69-4.13-3.22-7.96-8.13-7.96c-2.79,0-7.09,1.33-7.09,5.89c0,3.7,3.22,4.94,6.19,5.89l5.2,1.63c2.15,0.69,7.35,1.98,7.35,7.87
			c0,5.33-4.13,10.15-10.92,10.15c-2.41,0-3.44-0.13-5.42-0.64c-1.12-0.34-2.58-0.95-3.57-0.95c-0.86,0-1.08,0.39-1.29,0.95h-0.64
			V36.76z"/>
		<path d="M104.09,15.39h12.94v0.6h-4.47l8.86,24.94h0.09l5.72-15.87l-3.27-9.07h-3.61v-0.6h12.9v0.6h-4.69l8.86,24.94h0.09
			l9.03-24.94h-4.6v-0.6h9.2v0.6h-3.87l-11.14,30.66h-1.08l-7.39-20.64h-0.09l-7.48,20.64h-1.16l-10.96-30.66h-3.87V15.39z"/>
		<path d="M152.12,45.4h4.77V15.99h-4.77v-0.6h13.85v0.6h-4.77V45.4h4.77V46h-13.85V45.4z"/>
		<path d="M168.51,45.4h4.77V15.99h-4.77v-0.6h9.67l7.96,23.13h0.09l7.96-23.13h9.5v0.6h-4.77V45.4h4.77V46h-13.85v-0.6h4.77V16.25
			h-0.09l-10.28,29.8l-10.23-29.5h-0.09V45.4h4.77V46h-10.19V45.4z"/>
		<path d="M204.37,15.39h12.94v0.6h-4.47l8.86,24.94h0.09l5.72-15.87l-3.27-9.07h-3.61v-0.6h12.9v0.6h-4.69l8.86,24.94h0.09
			l9.03-24.94h-4.6v-0.6h9.2v0.6h-3.87L236.4,46.65h-1.08l-7.4-20.64h-0.09l-7.48,20.64h-1.16l-10.96-30.66h-3.87V15.39z"/>
		<path d="M252.27,45.4h4.77V15.99h-4.77v-0.6h24.6v7.44h-0.47c-1.46-4.47-3.18-6.84-7.91-6.84h-7.14v13.29h2.79
			c3.83,0,5.03-1.16,6.28-6.32h0.47v13.37h-0.47c-0.77-3.31-1.46-6.45-5.59-6.45h-3.48V45.4h8.13c6.28,0,8.21-6.19,8.56-8.81h0.47
			V46h-26.23V45.4z"/>
		<path d="M281.21,45.4h3.78l11.61-30.79h1.03l11.7,30.79h3.83V46h-13.24v-0.6h4.77l-4.51-11.95h-9.98l-4.51,11.95h4.77V46h-9.25
			V45.4z M295.18,20.33l-4.73,12.51h9.46L295.18,20.33z"/>
		<path d="M314.4,45.4h4.77V15.99h-4.77v-0.6h8.17c0.69,0,1.38-0.04,2.06-0.09c0.69,0,1.38-0.04,2.06-0.04
			c3.35,0,5.85,0.13,8.08,1.89c1.98,1.55,2.75,3.65,2.75,5.38c0,1.68-0.9,5.98-7.57,6.84v0.09c1.85,0.26,6.88,1.08,8,4.99
			c0.65,2.24,0.47,6.28,0.9,8.26c0.34,1.51,0.95,2.92,2.62,2.92c0.73,0,1.59-0.3,2.24-0.9l0.39,0.47c-0.6,0.47-1.38,1.12-3.78,1.12
			c-4.6,0-5.8-2.28-6.15-6.62l-0.3-3.91c-0.43-5.76-4.13-5.89-6.11-5.89h-4.3V45.4h4.77V46H314.4V45.4z M323.48,29.28h3.96
			c3.18,0,5.38-1.38,5.38-6.67c0-6.02-3.4-6.75-6.41-6.75c-1.03,0-2.19,0.04-2.92,0.13V29.28z"/>
	</g>
</g>
<g id="BRAS" class="st0">
	<rect class="st2" width="420" height="60"/>
	<g class="st1">
		<path d="M153.74,45.4h4.77V15.99h-4.77v-0.6h7.52c0.86,0,1.76-0.04,2.67-0.09c0.9,0,1.81-0.04,2.58-0.04
			c8.38,0,10.36,4.47,10.36,7.27c0,3.78-3.57,6.49-7.61,6.92v0.09c4.17,0.34,9.03,2.88,9.03,7.83c0,5.12-3.87,8.82-11.83,8.82
			c-0.77,0-1.55-0.04-2.41-0.09c-0.86-0.04-1.76-0.09-2.79-0.09h-7.52V45.4z M162.81,29.28h3.96c3.18,0,5.38-1.38,5.38-6.67
			c0-6.02-3.4-6.75-6.41-6.75c-1.03,0-2.19,0.04-2.92,0.13V29.28z M162.81,45.4c0.69,0.04,1.38,0.17,2.92,0.17
			c5.42,0,7.61-1.89,7.61-8.3c0-4.56-1.98-7.4-5.8-7.4h-4.73V45.4z"/>
		<path d="M181.56,45.4h4.77V15.99h-4.77v-0.6h8.17c0.69,0,1.38-0.04,2.06-0.09c0.69,0,1.38-0.04,2.06-0.04
			c3.35,0,5.85,0.13,8.08,1.89c1.98,1.55,2.75,3.65,2.75,5.38c0,1.68-0.9,5.98-7.57,6.84v0.09c1.85,0.26,6.88,1.08,8,4.99
			c0.65,2.24,0.47,6.28,0.9,8.26c0.34,1.51,0.95,2.92,2.62,2.92c0.73,0,1.59-0.3,2.24-0.9l0.39,0.47c-0.6,0.47-1.38,1.12-3.78,1.12
			c-4.6,0-5.8-2.28-6.15-6.62l-0.3-3.91c-0.43-5.76-4.13-5.89-6.11-5.89h-4.3V45.4h4.77V46h-13.85V45.4z M190.63,29.28h3.96
			c3.18,0,5.38-1.38,5.38-6.67c0-6.02-3.4-6.75-6.41-6.75c-1.03,0-2.19,0.04-2.92,0.13V29.28z"/>
		<path d="M206.97,45.4h3.78l11.61-30.79h1.03l11.7,30.79h3.83V46h-13.24v-0.6h4.77l-4.51-11.95h-9.98l-4.52,11.95h4.77V46h-9.25
			V45.4z M220.94,20.33l-4.73,12.51h9.46L220.94,20.33z"/>
		<path d="M242.1,36.76h0.47c1.98,9.33,7.27,9.29,10.45,9.29c6.06,0,7.61-4.17,7.61-6.97c0-4-3.35-5.63-5.76-6.36l-4.95-1.51
			c-4.64-1.42-7.05-3.65-7.05-7.57c0-5.2,3.87-9.03,9.42-9.03c4,0,5.12,1.68,6.75,1.68c0.73,0,0.86-0.09,1.29-0.9h0.6v7.78h-0.52
			c-0.69-4.13-3.23-7.96-8.13-7.96c-2.79,0-7.09,1.33-7.09,5.89c0,3.7,3.22,4.94,6.19,5.89l5.2,1.63c2.15,0.69,7.35,1.98,7.35,7.87
			c0,5.33-4.13,10.15-10.92,10.15c-2.41,0-3.44-0.13-5.42-0.64c-1.12-0.34-2.58-0.95-3.57-0.95c-0.86,0-1.08,0.39-1.29,0.95h-0.65
			V36.76z"/>
	</g>
</g>
<g id="SEXY" class="st0">
	<g class="st1">
		<path d="M156.16,36.76h0.47c1.98,9.33,7.27,9.29,10.45,9.29c6.06,0,7.61-4.17,7.61-6.97c0-4-3.35-5.63-5.76-6.36l-4.95-1.51
			c-4.64-1.42-7.05-3.65-7.05-7.57c0-5.2,3.87-9.03,9.42-9.03c4,0,5.12,1.68,6.75,1.68c0.73,0,0.86-0.09,1.29-0.9h0.6v7.78h-0.52
			c-0.69-4.13-3.22-7.96-8.13-7.96c-2.79,0-7.1,1.33-7.1,5.89c0,3.7,3.23,4.94,6.19,5.89l5.2,1.63c2.15,0.69,7.35,1.98,7.35,7.87
			c0,5.33-4.13,10.15-10.92,10.15c-2.41,0-3.44-0.13-5.42-0.64c-1.12-0.34-2.58-0.95-3.57-0.95c-0.86,0-1.08,0.39-1.29,0.95h-0.65
			V36.76z"/>
		<path d="M180.33,45.4h4.77V15.99h-4.77v-0.6h24.6v7.44h-0.47c-1.46-4.47-3.18-6.84-7.91-6.84h-7.14v13.29h2.79
			c3.83,0,5.03-1.16,6.28-6.32h0.47v13.37h-0.47c-0.77-3.31-1.46-6.45-5.59-6.45h-3.48V45.4h8.13c6.28,0,8.21-6.19,8.56-8.81h0.47
			V46h-26.23V45.4z"/>
		<path d="M207.94,45.4h4.13l8.6-14.36l-9.16-15.05h-3.57v-0.6h12.81v0.6h-4.13l6.88,11.31l6.88-11.31h-4.13v-0.6h8.94v0.6h-4.13
			l-7.18,11.91l10.71,17.5h3.57V46h-12.9v-0.6h4.13l-8.38-13.76l-8.21,13.76h4.13V46h-8.99V45.4z"/>
		<path d="M245.52,45.4h4.77V33.06l-9.67-17.07h-3.91v-0.6h13.16v0.6h-4.3l8.6,15.14l8.13-15.14h-4.34v-0.6h9.2v0.6h-4.17
			l-8.38,15.69V45.4h4.77V46h-13.85V45.4z"/>
	</g>
</g>
<g id="PANTIES" class="st0">
	<g class="st1">
		<path d="M117.92,45.4h4.77V15.99h-4.77v-0.6H126c0.82,0,1.59-0.04,2.41-0.09c0.77,0,1.59-0.04,2.37-0.04
			c6.54,0,11.39,3.27,11.39,8.17c0,5.12-5.63,8.13-11.95,8.13c-0.77,0-2.28-0.17-3.22-0.34V45.4h4.77V46h-13.85V45.4z M126.99,30.61
			c1.12,0.21,2.54,0.34,3.48,0.34c4.21,0,6.75-2.49,6.75-7.52c0-5.89-2.19-7.57-7.74-7.57c-1.08,0-2.02,0.09-2.49,0.13V30.61z"/>
		<path d="M138.81,45.4h3.78l11.61-30.79h1.03l11.7,30.79h3.83V46h-13.24v-0.6h4.77l-4.52-11.95h-9.98l-4.51,11.95h4.77V46h-9.25
			V45.4z M152.79,20.33l-4.73,12.51h9.46L152.79,20.33z"/>
		<path d="M169.9,45.4h4.77V15.99h-4.77v-0.6h9.2l14.53,23.43h0.09V15.99h-4.77v-0.6h10.19v0.6h-4.77V46.6h-0.86l-18.1-28.85h-0.09
			V45.4h4.77V46H169.9V45.4z"/>
		<path d="M207.83,45.4h4.77V15.99h-2.49c-2.28,0-5.98,0.22-7.96,7.27h-0.47v-7.87h26.14v7.87h-0.47c-1.98-7.05-5.68-7.27-7.96-7.27
			h-2.49V45.4h4.77V46h-13.85V45.4z"/>
		<path d="M230.88,45.4h4.77V15.99h-4.77v-0.6h13.85v0.6h-4.77V45.4h4.77V46h-13.85V45.4z"/>
		<path d="M247.43,45.4h4.77V15.99h-4.77v-0.6h24.6v7.44h-0.47c-1.46-4.47-3.18-6.84-7.91-6.84h-7.14v13.29h2.79
			c3.83,0,5.03-1.16,6.28-6.32h0.47v13.37h-0.47c-0.77-3.31-1.46-6.45-5.59-6.45h-3.48V45.4h8.13c6.28,0,8.21-6.19,8.56-8.81h0.47
			V46h-26.23V45.4z"/>
		<path d="M277.92,36.76h0.47c1.98,9.33,7.27,9.29,10.45,9.29c6.06,0,7.61-4.17,7.61-6.97c0-4-3.35-5.63-5.76-6.36l-4.95-1.51
			c-4.64-1.42-7.05-3.65-7.05-7.57c0-5.2,3.87-9.03,9.42-9.03c4,0,5.12,1.68,6.75,1.68c0.73,0,0.86-0.09,1.29-0.9h0.6v7.78h-0.52
			c-0.69-4.13-3.23-7.96-8.13-7.96c-2.79,0-7.09,1.33-7.09,5.89c0,3.7,3.22,4.94,6.19,5.89l5.2,1.63c2.15,0.69,7.35,1.98,7.35,7.87
			c0,5.33-4.13,10.15-10.92,10.15c-2.41,0-3.44-0.13-5.42-0.64c-1.12-0.34-2.58-0.95-3.57-0.95c-0.86,0-1.08,0.39-1.29,0.95h-0.65
			V36.76z"/>
	</g>
</g>
<g id="SHAPEWEAR" class="st0">
	<g class="st1">
		<path d="M73.56,36.76h0.47c1.98,9.33,7.27,9.29,10.45,9.29c6.06,0,7.61-4.17,7.61-6.97c0-4-3.35-5.63-5.76-6.36l-4.94-1.51
			c-4.64-1.42-7.05-3.65-7.05-7.57c0-5.2,3.87-9.03,9.42-9.03c4,0,5.12,1.68,6.75,1.68c0.73,0,0.86-0.09,1.29-0.9h0.6v7.78h-0.52
			c-0.69-4.13-3.22-7.96-8.13-7.96c-2.79,0-7.09,1.33-7.09,5.89c0,3.7,3.22,4.94,6.19,5.89l5.2,1.63c2.15,0.69,7.35,1.98,7.35,7.87
			c0,5.33-4.13,10.15-10.92,10.15c-2.41,0-3.44-0.13-5.42-0.64c-1.12-0.34-2.58-0.95-3.57-0.95c-0.86,0-1.08,0.39-1.29,0.95h-0.64
			V36.76z"/>
		<path d="M97.73,45.4h4.77V15.99h-4.77v-0.6h13.85v0.6h-4.77v14.06h14.32V15.99h-4.77v-0.6h13.85v0.6h-4.77V45.4h4.77V46h-13.85
			v-0.6h4.77V30.65H106.8V45.4h4.77V46H97.73V45.4z"/>
		<path d="M130.58,45.4h3.78l11.61-30.79h1.03l11.7,30.79h3.83V46h-13.24v-0.6h4.77l-4.51-11.95h-9.98l-4.52,11.95h4.77V46h-9.24
			V45.4z M144.55,20.33l-4.73,12.51h9.46L144.55,20.33z"/>
		<path d="M162.05,45.4h4.77V15.99h-4.77v-0.6h8.08c0.82,0,1.59-0.04,2.41-0.09c0.77,0,1.59-0.04,2.37-0.04
			c6.54,0,11.39,3.27,11.39,8.17c0,5.12-5.63,8.13-11.95,8.13c-0.77,0-2.28-0.17-3.23-0.34V45.4h4.77V46h-13.85V45.4z M171.13,30.61
			c1.12,0.21,2.54,0.34,3.48,0.34c4.21,0,6.75-2.49,6.75-7.52c0-5.89-2.19-7.57-7.74-7.57c-1.08,0-2.02,0.09-2.49,0.13V30.61z"/>
		<path d="M187.34,45.4h4.77V15.99h-4.77v-0.6h24.6v7.44h-0.47c-1.46-4.47-3.18-6.84-7.91-6.84h-7.14v13.29h2.79
			c3.83,0,5.03-1.16,6.28-6.32h0.47v13.37h-0.47c-0.77-3.31-1.46-6.45-5.59-6.45h-3.48V45.4h8.13c6.28,0,8.21-6.19,8.56-8.81h0.47
			V46h-26.23V45.4z"/>
		<path d="M212.45,15.39h12.94v0.6h-4.47l8.86,24.94h0.09l5.72-15.87l-3.27-9.07h-3.61v-0.6h12.9v0.6h-4.69l8.86,24.94h0.09
			l9.03-24.94h-4.6v-0.6h9.2v0.6h-3.87l-11.14,30.66h-1.08l-7.4-20.64h-0.09l-7.48,20.64h-1.16l-10.96-30.66h-3.87V15.39z"/>
		<path d="M260.35,45.4h4.77V15.99h-4.77v-0.6h24.6v7.44h-0.47c-1.46-4.47-3.18-6.84-7.91-6.84h-7.14v13.29h2.79
			c3.83,0,5.03-1.16,6.28-6.32h0.47v13.37h-0.47c-0.77-3.31-1.46-6.45-5.59-6.45h-3.48V45.4h8.13c6.28,0,8.21-6.19,8.56-8.81h0.47
			V46h-26.23V45.4z"/>
		<path d="M289.29,45.4h3.78l11.61-30.79h1.03l11.7,30.79h3.83V46H308v-0.6h4.77l-4.51-11.95h-9.98l-4.51,11.95h4.77V46h-9.25V45.4z
			 M303.27,20.33l-4.73,12.51H308L303.27,20.33z"/>
		<path d="M319.91,45.4h4.77V15.99h-4.77v-0.6h8.17c0.69,0,1.38-0.04,2.06-0.09c0.69,0,1.38-0.04,2.06-0.04
			c3.35,0,5.85,0.13,8.08,1.89c1.98,1.55,2.75,3.65,2.75,5.38c0,1.68-0.9,5.98-7.57,6.84v0.09c1.85,0.26,6.88,1.08,8,4.99
			c0.65,2.24,0.47,6.28,0.9,8.26c0.34,1.51,0.95,2.92,2.62,2.92c0.73,0,1.59-0.3,2.24-0.9l0.39,0.47c-0.6,0.47-1.38,1.12-3.78,1.12
			c-4.6,0-5.8-2.28-6.15-6.62l-0.3-3.91c-0.43-5.76-4.13-5.89-6.11-5.89h-4.3V45.4h4.77V46h-13.85V45.4z M328.98,29.28h3.96
			c3.18,0,5.38-1.38,5.38-6.67c0-6.02-3.4-6.75-6.41-6.75c-1.03,0-2.19,0.04-2.92,0.13V29.28z"/>
	</g>
</g>
<g id="SLEEPWEAR_copy" class="st0">
	<g class="st1">
		<path d="M79.73,36.76h0.47c1.98,9.33,7.27,9.29,10.45,9.29c6.06,0,7.61-4.17,7.61-6.97c0-4-3.35-5.63-5.76-6.36l-4.95-1.51
			c-4.64-1.42-7.05-3.65-7.05-7.57c0-5.2,3.87-9.03,9.42-9.03c4,0,5.12,1.68,6.75,1.68c0.73,0,0.86-0.09,1.29-0.9h0.6v7.78h-0.52
			c-0.69-4.13-3.22-7.96-8.13-7.96c-2.79,0-7.1,1.33-7.1,5.89c0,3.7,3.23,4.94,6.19,5.89l5.2,1.63c2.15,0.69,7.35,1.98,7.35,7.87
			c0,5.33-4.13,10.15-10.92,10.15c-2.41,0-3.44-0.13-5.42-0.64c-1.12-0.34-2.58-0.95-3.57-0.95c-0.86,0-1.08,0.39-1.29,0.95h-0.65
			V36.76z"/>
		<path d="M102.18,45.4h4.77V15.99h-4.77v-0.6h13.85v0.6h-4.77V45.4h7.65c5.03,0,7.78-3.4,9.07-8.81h0.47V46h-26.27V45.4z"/>
		<path d="M129.91,45.4h4.77V15.99h-4.77v-0.6h24.6v7.44h-0.47c-1.46-4.47-3.18-6.84-7.91-6.84h-7.14v13.29h2.79
			c3.83,0,5.03-1.16,6.28-6.32h0.47v13.37h-0.47c-0.77-3.31-1.46-6.45-5.59-6.45h-3.48V45.4h8.13c6.28,0,8.21-6.19,8.56-8.81h0.47
			V46h-26.23V45.4z"/>
		<path d="M157.61,45.4h4.77V15.99h-4.77v-0.6h24.6v7.44h-0.47c-1.46-4.47-3.18-6.84-7.91-6.84h-7.14v13.29h2.79
			c3.83,0,5.03-1.16,6.28-6.32h0.47v13.37h-0.47c-0.77-3.31-1.46-6.45-5.59-6.45h-3.48V45.4h8.13c6.28,0,8.21-6.19,8.56-8.81h0.47
			V46h-26.23V45.4z"/>
		<path d="M186.16,45.4h4.77V15.99h-4.77v-0.6h8.08c0.82,0,1.59-0.04,2.41-0.09c0.77,0,1.59-0.04,2.37-0.04
			c6.54,0,11.39,3.27,11.39,8.17c0,5.12-5.63,8.13-11.95,8.13c-0.77,0-2.28-0.17-3.22-0.34V45.4H200V46h-13.85V45.4z M195.23,30.61
			c1.12,0.21,2.54,0.34,3.48,0.34c4.21,0,6.75-2.49,6.75-7.52c0-5.89-2.19-7.57-7.74-7.57c-1.08,0-2.02,0.09-2.49,0.13V30.61z"/>
		<path d="M208.86,15.39h12.94v0.6h-4.47l8.86,24.94h0.09L232,25.06l-3.27-9.07h-3.61v-0.6h12.9v0.6h-4.69l8.86,24.94h0.09
			l9.03-24.94h-4.6v-0.6h9.2v0.6h-3.87L240.9,46.65h-1.08l-7.4-20.64h-0.09l-7.48,20.64h-1.16l-10.96-30.66h-3.87V15.39z"/>
		<path d="M255.9,45.4h4.77V15.99h-4.77v-0.6h24.6v7.44h-0.47c-1.46-4.47-3.18-6.84-7.91-6.84h-7.14v13.29h2.79
			c3.83,0,5.03-1.16,6.28-6.32h0.47v13.37h-0.47c-0.77-3.31-1.46-6.45-5.59-6.45h-3.48V45.4h8.13c6.28,0,8.21-6.19,8.56-8.81h0.47
			V46H255.9V45.4z"/>
		<path d="M283.12,45.4h3.78l11.61-30.79h1.03l11.7,30.79h3.83V46h-13.24v-0.6h4.77l-4.51-11.95h-9.98l-4.52,11.95h4.77V46h-9.25
			V45.4z M297.1,20.33l-4.73,12.51h9.46L297.1,20.33z"/>
		<path d="M313.74,45.4h4.77V15.99h-4.77v-0.6h8.17c0.69,0,1.38-0.04,2.06-0.09c0.69,0,1.38-0.04,2.06-0.04
			c3.35,0,5.85,0.13,8.08,1.89c1.98,1.55,2.75,3.65,2.75,5.38c0,1.68-0.9,5.98-7.57,6.84v0.09c1.85,0.26,6.88,1.08,8,4.99
			c0.65,2.24,0.47,6.28,0.9,8.26c0.34,1.51,0.95,2.92,2.62,2.92c0.73,0,1.59-0.3,2.24-0.9l0.39,0.47c-0.6,0.47-1.38,1.12-3.78,1.12
			c-4.6,0-5.8-2.28-6.15-6.62l-0.3-3.91c-0.43-5.76-4.13-5.89-6.11-5.89h-4.3V45.4h4.77V46h-13.85V45.4z M322.81,29.28h3.96
			c3.18,0,5.38-1.38,5.38-6.67c0-6.02-3.4-6.75-6.41-6.75c-1.03,0-2.19,0.04-2.92,0.13V29.28z"/>
	</g>
</g>
<g id="HOSIERY">
	<g>
		<path d="M116.8,45.4h4.77V15.99h-4.77v-0.6h13.85v0.6h-4.77v14.06h14.32V15.99h-4.77v-0.6h13.85v0.6h-4.77V45.4h4.77V46h-13.85
			v-0.6h4.77V30.65h-14.32V45.4h4.77V46H116.8V45.4z"/>
		<path d="M165,14.61c7.57,0,14.96,6.88,14.96,16.04c0,8.04-6.58,16-14.96,16c-8.64,0-14.96-7.7-14.96-16
			C150.04,21.49,157.95,14.61,165,14.61z M165,46.05c7.4,0,10.02-5.07,10.02-15.39c0-7.91-1.63-15.44-10.02-15.44
			s-10.02,7.52-10.02,15.44C154.98,40.97,157.61,46.05,165,46.05z"/>
		<path d="M183.53,36.76h0.47c1.98,9.33,7.27,9.29,10.45,9.29c6.06,0,7.61-4.17,7.61-6.97c0-4-3.35-5.63-5.76-6.36l-4.95-1.51
			c-4.64-1.42-7.05-3.65-7.05-7.57c0-5.2,3.87-9.03,9.42-9.03c4,0,5.12,1.68,6.75,1.68c0.73,0,0.86-0.09,1.29-0.9h0.6v7.78h-0.52
			c-0.69-4.13-3.22-7.96-8.13-7.96c-2.79,0-7.09,1.33-7.09,5.89c0,3.7,3.23,4.94,6.19,5.89l5.2,1.63c2.15,0.69,7.35,1.98,7.35,7.87
			c0,5.33-4.13,10.15-10.92,10.15c-2.41,0-3.44-0.13-5.42-0.64c-1.12-0.34-2.58-0.95-3.57-0.95c-0.86,0-1.07,0.39-1.29,0.95h-0.65
			V36.76z"/>
		<path d="M206.11,45.4h4.77V15.99h-4.77v-0.6h13.85v0.6h-4.77V45.4h4.77V46h-13.85V45.4z"/>
		<path d="M221.8,45.4h4.77V15.99h-4.77v-0.6h24.6v7.44h-0.47c-1.46-4.47-3.18-6.84-7.91-6.84h-7.14v13.29h2.79
			c3.83,0,5.03-1.16,6.28-6.32h0.47v13.37h-0.47c-0.77-3.31-1.46-6.45-5.59-6.45h-3.48V45.4H239c6.28,0,8.21-6.19,8.56-8.81h0.47V46
			H221.8V45.4z"/>
		<path d="M250.35,45.4h4.77V15.99h-4.77v-0.6h8.17c0.69,0,1.38-0.04,2.06-0.09c0.69,0,1.38-0.04,2.06-0.04
			c3.35,0,5.85,0.13,8.08,1.89c1.98,1.55,2.75,3.65,2.75,5.38c0,1.68-0.9,5.98-7.57,6.84v0.09c1.85,0.26,6.88,1.08,8,4.99
			c0.65,2.24,0.47,6.28,0.9,8.26c0.34,1.51,0.95,2.92,2.62,2.92c0.73,0,1.59-0.3,2.24-0.9l0.39,0.47c-0.6,0.47-1.38,1.12-3.78,1.12
			c-4.6,0-5.8-2.28-6.15-6.62l-0.3-3.91c-0.43-5.76-4.13-5.89-6.11-5.89h-4.3V45.4h4.77V46h-13.85V45.4z M259.43,29.28h3.96
			c3.18,0,5.38-1.38,5.38-6.67c0-6.02-3.4-6.75-6.41-6.75c-1.03,0-2.19,0.04-2.92,0.13V29.28z"/>
		<path d="M282.95,45.4h4.77V33.06l-9.67-17.07h-3.91v-0.6h13.16v0.6h-4.3l8.6,15.14l8.13-15.14h-4.34v-0.6h9.2v0.6h-4.17
			l-8.38,15.69V45.4h4.77V46h-13.85V45.4z"/>
	</g>
</g>
</svg>
